<?xml version="1.0" encoding="iso-8859-1"?>
<!-- Generator: Adobe Illustrator 19.1.0, SVG Export Plug-In . SVG Version: 6.00 Build 0)  -->
<svg version="1.1" id="Capa_1" xmlns="http://www.w3.org/2000/svg" xmlns:xlink="http://www.w3.org/1999/xlink" x="0px" y="0px"
	 viewBox="0 0 181.352 181.352" style="enable-background:new 0 0 181.352 181.352;" xml:space="preserve">
<g>
	<g>
		<g>
			<path style="fill:#010002;" d="M169.393,167.37l-14.919,9.848c-9.604,6.614-50.531,14.049-106.211-53.404
				C-5.415,58.873,9.934,22.86,17.134,14.555L29.523,1.678c2.921-2.491,7.328-2.198,9.839,0.811l32.583,38.543l0.02,0.02
				c2.384,2.824,2.306,7.22-0.83,9.868v0.029l-14.44,10.415c-5.716,5.667-0.733,14.587,5.11,23.204l27.786,32.808
				c12.926,12.477,20.009,18.241,26.194,14.118l12.008-13.395c2.941-2.472,7.328-2.169,9.839,0.821l32.603,38.543v0.02
				C172.607,160.316,172.519,164.703,169.393,167.37z"/>
		</g>
	</g>
</g>
<g>
</g>
<g>
</g>
<g>
</g>
<g>
</g>
<g>
</g>
<g>
</g>
<g>
</g>
<g>
</g>
<g>
</g>
<g>
</g>
<g>
</g>
<g>
</g>
<g>
</g>
<g>
</g>
<g>
</g>
</svg>
